<svg width="33" height="30" viewBox="0 0 33 30" fill="none" xmlns="http://www.w3.org/2000/svg">
<g clip-path="url(#clip0)">
<path d="M16.5 3.59998C9.56998 3.59998 3.95998 8.69998 3.95998 15C3.95998 21.3 9.56998 26.4 16.5 26.4C23.43 26.4 29.04 21.3 29.04 15C29.04 8.69998 23.43 3.59998 16.5 3.59998ZM16.5 25.2C10.296 25.2 5.27998 20.64 5.27998 15C5.27998 9.35997 10.296 4.79998 16.5 4.79998C22.704 4.79998 27.72 9.35997 27.72 15C27.72 20.64 22.704 25.2 16.5 25.2ZM24.057 11.13C23.793 10.89 23.397 10.89 23.133 11.13L14.718 18.81L11.187 15.6C10.923 15.36 10.494 15.36 10.263 15.6C9.99898 15.84 9.99898 16.23 10.263 16.44L14.256 20.07C14.388 20.19 14.553 20.25 14.718 20.25C14.883 20.25 15.048 20.19 15.18 20.07L24.057 11.97C24.321 11.73 24.321 11.37 24.057 11.13Z" fill="#FF0000"/>
<path d="M542.52 -363V142.2H-46.2V-363H542.52ZM545.16 -365.4H-48.84V144.6H545.16V-365.4Z" fill="#FF0000"/>
</g>
<defs>
<clipPath id="clip0">
<rect width="33" height="30" fill="white"/>
</clipPath>
</defs>
</svg>
