<svg width="1440" height="441" viewBox="0 0 1440 441" fill="none" xmlns="http://www.w3.org/2000/svg">
<path d="M-135 196L-15 228.7C105 261 345 327 585 334.8C825 343 1065 294 1305 245C1545 196 1785 147 2025 171.5C2265 196 2505 294 2745 343C2985 392 3225 392 3465 375.7C3705 359 3945 327 4185 285.8C4425 245 4665 196 4905 179.7C5145 163 5385 180 5625 187.8C5865 196 6105 196 6345 171.5C6585 147 6825 98 7065 114.3C7305 131 7545 212 7785 236.8C8025 261 8265 229 8505 196C8745 163 8985 131 9225 130.7C9465 131 9705 163 9945 147C10185 131 10425 65 10665 32.7C10905 -3.8147e-06 11145 0 11385 0C11625 0 11865 -3.8147e-06 12105 32.7C12345 65 12585 131 12825 196C13065 261 13305 327 13545 326.7C13785 327 14025 261 14265 253.2C14505 245 14745 294 14985 269.5C15225 245 15465 147 15705 106.2C15945 65 16185 82 16425 130.7C16665 180 16905 261 17025 302.2L17145 343V441H17025C16905 441 16665 441 16425 441C16185 441 15945 441 15705 441C15465 441 15225 441 14985 441C14745 441 14505 441 14265 441C14025 441 13785 441 13545 441C13305 441 13065 441 12825 441C12585 441 12345 441 12105 441C11865 441 11625 441 11385 441C11145 441 10905 441 10665 441C10425 441 10185 441 9945 441C9705 441 9465 441 9225 441C8985 441 8745 441 8505 441C8265 441 8025 441 7785 441C7545 441 7305 441 7065 441C6825 441 6585 441 6345 441C6105 441 5865 441 5625 441C5385 441 5145 441 4905 441C4665 441 4425 441 4185 441C3945 441 3705 441 3465 441C3225 441 2985 441 2745 441C2505 441 2265 441 2025 441C1785 441 1545 441 1305 441C1065 441 825 441 585 441C345 441 105 441 -15 441H-135V196Z" fill="white"/>
</svg>
