<svg width="655" height="710" viewBox="0 0 655 710" fill="none" xmlns="http://www.w3.org/2000/svg">
<g clip-path="url(#clip0)">
<path d="M540.817 109.626C552.481 77.076 541.747 43.266 516.842 34.1089C491.936 24.9518 462.291 43.9153 450.627 76.4649C438.963 109.014 449.697 142.824 474.602 151.981C499.508 161.139 529.153 142.175 540.817 109.626Z" fill="#68E1FD" fill-opacity="0.88"/>
<path d="M199.179 142.987C224.046 140.121 241.246 111.45 237.596 78.9485C233.945 46.4466 210.828 22.4215 185.961 25.287C161.094 28.1524 143.894 56.8233 147.544 89.3252C151.194 121.827 174.312 145.852 199.179 142.987Z" fill="#CDFFCA"/>
<path d="M199.179 138.987C224.046 136.121 241.246 107.45 237.596 74.9485C233.945 42.4466 210.828 18.4215 185.961 21.287C161.094 24.1524 143.894 52.8233 147.544 85.3252C151.194 117.827 174.312 141.852 199.179 138.987Z" fill="url(#paint0_linear)"/>
<path opacity="0.06" d="M179.599 98.7316C179.599 101.89 179.599 105.694 182.339 107.285C183.617 107.901 185.024 108.188 186.438 108.123C194.008 108.47 201.874 110.168 207.696 115.097C213.519 120.026 216.566 128.867 213.129 135.71C209.692 142.553 201.023 145.28 193.453 144.371C183.686 143.246 175.076 137.612 166.868 132.133C162.038 128.903 157.124 125.601 153.534 121.007C142.243 106.543 140.543 77.0065 151.963 62.0048C169.313 39.2389 179.517 86.8761 179.599 98.7316Z" fill="url(#paint1_linear)"/>
<path d="M132.388 171.997C156.862 166.695 171.228 136.466 164.475 104.478C157.722 72.4896 132.408 50.8553 107.934 56.1564C83.4594 61.4575 69.0934 91.6866 75.8462 123.675C82.599 155.663 107.913 177.298 132.388 171.997Z" fill="#CDFFCA" fill-opacity="0.97"/>
<path d="M181.87 243.979C200.353 227.084 197.558 193.731 175.628 169.485C153.697 145.238 120.935 139.279 102.452 156.174C83.9683 173.069 86.763 206.422 108.694 230.668C130.624 254.915 163.386 260.874 181.87 243.979Z" fill="#CDFFCA" fill-opacity="0.7"/>
<path d="M440.029 536.523V675.773C440.029 675.773 437.371 699.604 410.739 701.446C395.244 702.499 337.291 705.227 291.585 707.308C258.788 708.792 232.285 709.988 232.285 709.988C232.285 709.988 205.122 705.107 205.122 681.887V547.11H205.228L208.157 546.966L440.029 536.523Z" fill="#E5E5E5"/>
<path d="M434.419 560.808C434.419 560.808 282.42 587.198 236.561 575.654C213.696 569.912 204.366 557.59 205.854 545.914C207.342 534.238 219.837 523.052 240.529 519.894C240.529 519.894 376.17 495.322 417.258 513.912C434.572 521.736 440.336 531.307 441.222 539.741C442.426 551.333 434.419 560.808 434.419 560.808Z" fill="url(#paint2_linear)"/>
<path d="M441.245 539.741C440.359 531.307 434.596 521.736 417.282 513.912C376.194 495.322 240.553 519.894 240.553 519.894C219.861 523.052 207.389 534.154 205.877 545.914C204.165 532.527 217.062 518.686 240.553 515.109C240.553 515.109 376.194 490.536 417.282 509.127C437.974 518.482 442.178 530.302 441.245 539.741Z" fill="url(#paint3_linear)"/>
<path d="M377.907 465.007C377.593 466.232 377.141 467.416 376.56 468.536C369.781 481.839 344.058 499.174 344.058 499.174C344.058 499.174 320.355 504.509 301.399 506.962C282.444 509.414 274.117 502.643 274.117 502.643C270.498 499.845 266.599 497.439 262.484 495.465H262.425C256.309 492.435 249.83 490.223 243.151 488.885C224.254 485.129 229.876 471.048 236.313 471.766C242.749 472.484 262.543 453.917 271.318 461.681C280.094 469.445 294.644 451.895 315.335 431.857C336.027 411.819 363.321 430.338 363.321 430.338L370.407 429.776C372.303 429.616 374.211 429.854 376.012 430.477C377.813 431.099 379.467 432.092 380.871 433.393C382.275 434.694 383.398 436.275 384.171 438.036C384.943 439.797 385.347 441.702 385.359 443.629C385.359 447.134 384.697 450.412 383.398 452.386C380.853 456.235 378.994 460.507 377.907 465.007Z" fill="#3F3D56"/>
<path d="M361.821 443.581C361.821 443.581 365.718 436.092 371.269 438.425C376.82 440.758 378.946 453.726 378.946 453.726L361.821 443.581Z" fill="#091240"/>
<path d="M377.906 465.007L376.56 468.536C369.781 481.839 344.058 499.174 344.058 499.174C344.058 499.174 320.355 504.509 301.399 506.962C282.444 509.414 274.117 502.643 274.117 502.643C270.498 499.845 266.599 497.439 262.484 495.465C264.291 495.884 291.384 490.213 304.777 485.081C318.17 479.949 321.996 445.352 335.897 435.123C349.798 424.895 359.199 442.421 359.199 442.421L377.906 465.007Z" fill="#25233A"/>
<path d="M441.245 539.741C441.054 541.572 440.682 543.38 440.135 545.136C438.902 549.088 436.965 552.778 434.419 556.023C434.419 556.023 282.42 582.413 236.561 570.869C227.112 568.476 220.026 565.007 214.995 560.915C209.503 556.429 206.539 551.201 205.877 545.914C207.389 534.154 219.861 523.052 240.553 519.894C240.553 519.894 376.194 495.322 417.282 513.912C434.596 521.736 440.359 531.307 441.245 539.741Z" fill="#68E1FD"/>
<path d="M441.245 539.741C441.054 541.572 440.682 543.38 440.135 545.136C438.902 549.088 436.965 552.778 434.419 556.023C434.419 556.023 282.42 582.413 236.561 570.869C227.112 568.476 220.026 565.007 214.995 560.915C209.503 556.429 206.539 551.201 205.877 545.914C207.389 534.154 219.861 523.052 240.553 519.894C240.553 519.894 376.194 495.322 417.282 513.912C434.596 521.736 440.359 531.307 441.245 539.741Z" fill="url(#paint4_linear)"/>
<path d="M440.666 536.523L440.135 545.124C438.902 549.076 436.965 552.766 434.419 556.011C434.419 556.011 282.42 582.401 236.56 570.857C227.112 568.464 220.026 564.995 214.995 560.903C215.881 560.724 255.776 553.163 269.204 551.991C282.633 550.819 264.161 529.895 292.27 518.781C320.378 507.668 394.807 513.793 394.807 513.793L440.666 536.523Z" fill="url(#paint5_linear)"/>
<path d="M306.702 516.568C306.702 516.568 279.125 537.372 282.656 563.069C286.187 588.766 337.515 585.799 364.549 573.836C364.549 573.836 401.314 584.16 413.751 573.836C426.187 563.511 420.542 522.394 394.795 513.793C369.049 505.191 339.18 499.437 306.702 516.568Z" fill="#68E1FD"/>
<path d="M306.702 516.568C306.702 516.568 279.125 537.372 282.656 563.069C286.187 588.766 337.515 585.799 364.549 573.836C364.549 573.836 401.314 584.16 413.751 573.836C426.187 563.511 420.542 522.394 394.795 513.793C369.049 505.191 339.18 499.437 306.702 516.568Z" fill="url(#paint6_linear)"/>
<path opacity="0.19" d="M405.72 539.047C405.72 539.047 384.556 547.792 380.729 548.928C376.903 550.065 355.786 554.778 352.066 553.044C348.345 551.309 328.965 545.938 322.54 550.651C316.115 555.365 327.819 573.74 327.819 573.74L377.895 573.848L408.271 570.019L405.72 539.047Z" fill="url(#paint7_linear)"/>
<path d="M367.065 524.882C366.746 530.565 364.525 536.905 357.793 537.85C347.731 539.274 342.712 528.89 342.712 528.89C342.712 528.89 334.055 514.008 338.094 506.34C338.932 504.725 336.795 490.237 338.684 489.364C345.771 486.038 361.844 500.442 364.195 500.765C364.785 500.849 365.187 501.351 365.447 502.153C366.486 505.371 365.317 513.422 366.439 517.705C366.992 520.053 367.203 522.472 367.065 524.882Z" fill="url(#paint8_linear)"/>
<path opacity="0.19" d="M351.215 515.647C345.912 511.855 341.117 499.174 341.117 499.174L365.446 502.153C366.486 505.371 365.317 513.422 366.438 517.705C366.899 519.427 360.911 522.586 351.215 515.647Z" fill="url(#paint9_linear)"/>
<path d="M381.119 460.234C381.119 460.234 383.54 489.974 380.918 495.68C377.788 502.511 375.19 507.943 359.187 506.447C338.838 504.557 327.535 484.112 327.134 482.521C326.732 480.93 329.378 440.495 353.034 442.528C376.69 444.562 378.308 450.041 381.119 460.234Z" fill="#F9F1D1"/>
<path d="M403.984 518.805C403.984 518.805 430.899 540.674 422.148 573.836C413.396 606.997 360.911 579.195 360.911 579.195L382.631 563.212C382.631 563.212 403.747 560.664 405.554 555.412C407.361 550.161 403.984 518.805 403.984 518.805Z" fill="#68E1FD"/>
<path d="M403.984 518.805C403.984 518.805 430.899 540.674 422.148 573.836C413.396 606.997 360.911 579.195 360.911 579.195L382.631 563.212C382.631 563.212 403.747 560.664 405.554 555.412C407.361 550.161 403.984 518.805 403.984 518.805Z" fill="url(#paint10_linear)"/>
<path d="M282.656 563.069C282.656 563.069 298.553 611.196 328.374 600.597C358.195 589.998 389.469 563.224 389.469 563.224L384.945 552.003C384.945 552.003 341.023 568.069 330.701 560.903C320.378 553.738 311.155 519.774 297.856 524.847C284.558 529.919 281.133 552.075 282.656 563.069Z" fill="#68E1FD" fill-opacity="0.88"/>
<path d="M282.656 563.069C282.656 563.069 298.553 611.196 328.374 600.597C358.195 589.998 389.469 563.224 389.469 563.224L384.945 552.003C384.945 552.003 341.023 568.069 330.701 560.903C320.378 553.738 311.155 519.774 297.856 524.847C284.558 529.919 281.133 552.075 282.656 563.069Z" fill="url(#paint11_linear)"/>
<path d="M331.846 554.467C331.846 554.467 335.389 550.292 344.011 552.84C349.358 554.437 354.464 556.768 359.187 559.767C359.187 559.767 345.959 562.279 345.416 562.351C344.873 562.423 340.999 566.55 338.684 565.856C336.369 565.162 329.732 565.055 329.531 564.66C329.331 564.265 327.323 559.456 331.846 554.467Z" fill="url(#paint12_linear)"/>
<path d="M386.02 554.467C386.02 554.467 399.082 542.708 406.098 548.94L405.566 555.436C405.566 555.436 403.582 560.222 388.878 562.255L386.02 554.467Z" fill="url(#paint13_linear)"/>
<path d="M282.337 400.741L240.234 330.494" stroke="#826969" stroke-width="3.63" stroke-miterlimit="10" stroke-linecap="round"/>
<path d="M347.873 392.498L359.187 327.407" stroke="#7D4343" stroke-width="3.63" stroke-miterlimit="10" stroke-linecap="round"/>
<path d="M309.678 392.498L275.523 282.174" stroke="#956C6C" stroke-width="3.63" stroke-miterlimit="10" stroke-linecap="round"/>
<path d="M231.34 337.717C259.36 326.646 270.642 287.986 256.541 251.368C242.439 214.75 208.293 194.04 180.273 205.112C152.254 216.183 140.971 254.843 155.073 291.461C169.174 328.079 203.32 348.788 231.34 337.717Z" fill="#A7FFA3"/>
<path d="M231.34 337.717C259.36 326.646 270.642 287.986 256.541 251.368C242.439 214.75 208.293 194.04 180.273 205.112C152.254 216.183 140.971 254.843 155.073 291.461C169.174 328.079 203.32 348.788 231.34 337.717Z" fill="url(#paint14_linear)"/>
<path opacity="0.06" d="M159.699 223.148C159.699 223.148 153.912 236.2 153.133 239.897C152.353 243.593 189.745 253.307 189.745 253.307C189.745 253.307 218.987 321.76 257.76 308.924C257.76 308.924 262.26 303.134 264.02 291.661C265.779 280.189 198.413 210.228 198.413 210.228L159.699 223.148Z" fill="url(#paint15_linear)"/>
<path d="M272.047 172.328C301.93 168.884 322.6 134.433 318.214 95.38C313.828 56.3265 286.047 27.4589 256.164 30.9023C226.281 34.3458 205.611 68.7964 209.997 107.85C214.383 146.903 242.164 175.771 272.047 172.328Z" fill="#B8FFB5"/>
<path d="M272.047 172.328C301.93 168.884 322.6 134.433 318.214 95.38C313.828 56.3265 286.047 27.4589 256.164 30.9023C226.281 34.3458 205.611 68.7964 209.997 107.85C214.383 146.903 242.164 175.771 272.047 172.328Z" fill="url(#paint16_linear)"/>
<path opacity="0.06" d="M240.033 134.394C240.474 135.265 241.134 136.004 241.946 136.535C242.544 136.803 243.183 136.965 243.836 137.014L260.63 139.119C259.709 127.742 267.008 117.502 274.342 108.841C276.267 106.58 278.286 104.187 278.877 101.256C279.155 99.4845 279.155 97.6799 278.877 95.9084C278.168 88.8741 277.696 81.6245 279.562 74.8174C281.428 68.0104 286.329 61.658 293.097 59.8635L298.777 81.6125C300.095 86.0119 300.926 90.5457 301.258 95.1308C301.261 100.118 300.646 105.085 299.427 109.917C295.49 128.34 290.853 146.596 285.514 164.684C285.138 166.553 284.226 168.267 282.893 169.613C281.227 171.001 278.889 171.085 276.739 171.001C263.748 170.499 251.158 166.144 238.828 161.837C235.285 160.581 231.541 159.241 228.919 156.49C226.861 154.03 225.344 151.155 224.467 148.056C222.376 142.074 214.298 123.543 220.428 118.543C228.305 112.118 237.021 129.429 240.033 134.394Z" fill="url(#paint17_linear)"/>
<path d="M197.538 235.915C226.949 229.545 244.214 193.222 236.1 154.785C227.986 116.349 197.566 90.3542 168.155 96.7247C138.744 103.095 121.479 139.418 129.593 177.855C137.707 216.291 168.127 242.286 197.538 235.915Z" fill="#B8FFB5"/>
<path d="M197.538 235.915C226.949 229.545 244.214 193.222 236.1 154.785C227.986 116.349 197.566 90.3542 168.155 96.7247C138.744 103.095 121.479 139.418 129.593 177.855C137.707 216.291 168.127 242.286 197.538 235.915Z" fill="url(#paint18_linear)"/>
<path d="M264.226 293.433C293.637 287.062 310.902 250.739 302.788 212.303C294.673 173.866 264.253 147.871 234.842 154.242C205.431 160.612 188.167 196.936 196.281 235.372C204.395 273.808 234.815 299.803 264.226 293.433Z" fill="#A7FFA3"/>
<path d="M264.226 293.433C293.637 287.062 310.902 250.739 302.788 212.303C294.673 173.866 264.253 147.871 234.842 154.242C205.431 160.612 188.167 196.936 196.281 235.372C204.395 273.808 234.815 299.803 264.226 293.433Z" fill="url(#paint19_linear)"/>
<path d="M449.076 66.7098C454.573 34.4756 439.036 4.84659 414.374 0.531568C389.711 -3.78346 365.263 18.8495 359.766 51.0837C354.269 83.3179 369.806 112.947 394.468 117.262C419.131 121.577 443.579 98.944 449.076 66.7098Z" fill="#68E1FD"/>
<path d="M449.076 66.7098C454.573 34.4756 439.036 4.84659 414.374 0.531568C389.711 -3.78346 365.263 18.8495 359.766 51.0837C354.269 83.3179 369.806 112.947 394.468 117.262C419.131 121.577 443.579 98.944 449.076 66.7098Z" fill="url(#paint20_linear)"/>
<path d="M373.139 65.671C375.516 33.0482 357.208 5.08985 332.249 3.22435C307.289 1.35884 285.129 26.2926 282.753 58.9154C280.376 91.5383 298.684 119.497 323.643 121.362C348.603 123.228 370.763 98.2939 373.139 65.671Z" fill="#BAFFB7"/>
<path d="M373.139 65.671C375.516 33.0482 357.208 5.08985 332.249 3.22435C307.289 1.35884 285.129 26.2926 282.753 58.9154C280.376 91.5383 298.684 119.497 323.643 121.362C348.603 123.228 370.763 98.2939 373.139 65.671Z" fill="url(#paint21_linear)"/>
<path d="M366.829 334.718C396.79 332.058 418.331 298.159 414.943 259.004C411.554 219.849 384.519 190.264 354.558 192.925C324.597 195.585 303.055 229.483 306.444 268.639C309.833 307.794 336.868 337.379 366.829 334.718Z" fill="#68E1FD"/>
<path opacity="0.06" d="M333.264 242.409C336.094 253.173 341.683 262.987 349.465 270.857C357.247 278.727 366.945 284.373 377.576 287.223C382.085 288.565 386.841 288.819 391.465 287.965C395.601 286.934 399.32 284.627 402.106 281.363C404.892 278.099 406.609 274.04 407.019 269.745C407.515 262.734 404.444 256.047 401.433 249.718C397.772 242.038 394.11 234.358 389.823 226.988C385.961 220.373 381.556 213.973 375.84 208.9C370.124 203.828 363.014 200.131 355.443 199.569C344.932 198.791 334.941 203.995 326.142 209.869C323.564 211.488 321.185 213.411 319.056 215.6C315.442 219.547 308.426 231.893 311.166 237.289C313.599 242.074 333.677 244.096 333.264 242.409Z" fill="url(#paint22_linear)"/>
<path d="M522.058 240.018C541.46 205.979 536.073 166.036 510.026 150.803C483.98 135.571 447.137 150.817 427.735 184.856C408.334 218.896 413.72 258.839 439.767 274.071C465.813 289.304 502.657 274.058 522.058 240.018Z" fill="#68E1FD" fill-opacity="0.65"/>
<path d="M483.058 201.018C502.46 166.979 497.073 127.036 471.026 111.803C444.98 96.5708 408.137 111.817 388.735 145.856C369.334 179.896 374.72 219.839 400.767 235.071C426.813 250.304 463.657 235.058 483.058 201.018Z" fill="#68E1FD"/>
<path d="M469.838 110.958C468.78 117.166 467.082 123.245 464.771 129.094C453.504 157.806 428.939 176.026 404.196 171.695C374.564 166.515 355.892 130.925 362.494 92.1879C363.936 83.5938 366.609 75.2591 370.43 67.4481C382.701 42.6127 405.342 27.4554 428.159 31.4511C457.768 36.6431 476.44 72.2334 469.838 110.958Z" fill="#68E1FD"/>
<path opacity="0.06" d="M466.933 126.929C455.666 155.64 431.1 173.86 406.358 169.53C376.725 164.35 358.053 128.759 364.655 90.0226C366.116 81.4253 368.809 73.0905 372.651 65.2828C378.485 64.9119 381.768 74.8533 383.918 79.507C390.685 94.1274 393.641 110.26 392.504 126.367C406.959 120.529 423.058 120.444 437.572 126.127C439.508 127.076 441.596 127.664 443.737 127.862C445.553 127.741 447.344 127.375 449.064 126.773C454.928 125.214 461.096 125.268 466.933 126.929Z" fill="url(#paint23_linear)"/>
<path d="M381.544 159.289C379.064 193.241 358.75 220.301 333.866 225.421C329.983 226.228 326.009 226.489 322.055 226.199C292.057 223.95 270.09 190.31 272.913 151.166C275.735 112.023 302.438 82.0192 332.389 84.2564C351.451 85.68 367.277 99.8084 375.556 119.883C378.995 128.347 381.03 137.328 381.579 146.465C381.869 150.735 381.857 155.021 381.544 159.289Z" fill="#A7FFA3"/>
<path d="M381.544 159.289C379.064 193.241 358.75 220.301 333.866 225.421C329.983 226.228 326.009 226.489 322.055 226.199C292.057 223.95 270.09 190.31 272.913 151.166C275.735 112.023 302.438 82.0192 332.389 84.2564C351.451 85.68 367.277 99.8084 375.556 119.883C378.995 128.347 381.03 137.328 381.579 146.465C381.869 150.735 381.857 155.021 381.544 159.289Z" fill="url(#paint24_linear)"/>
<path opacity="0.06" d="M383.682 157.124C381.19 191.075 360.888 218.136 336.004 223.256C307.257 159.552 377.706 117.717 377.706 117.717L383.729 144.299C384.015 148.57 383.999 152.856 383.682 157.124Z" fill="url(#paint25_linear)"/>
<path d="M454.132 216.478C456.987 177.279 434.986 143.685 404.992 141.443C374.998 139.201 348.368 169.161 345.512 208.36C342.657 247.559 364.657 281.153 394.652 283.395C424.646 285.637 451.276 255.677 454.132 216.478Z" fill="#68E1FD" fill-opacity="0.98"/>
<path d="M331.834 458.236C331.834 458.236 332.649 474.29 335.118 479.686C335.118 479.686 329.118 472.819 328.433 477.293C326.744 488.323 336.074 489.914 336.37 489.819C338.732 489.137 339.913 500.047 338.153 500.406C333.878 501.291 325.74 502.894 325.74 502.894L321.394 488.814L331.834 458.236Z" fill="#25233A"/>
<path opacity="0.19" d="M334.964 485.189C334.964 485.189 333.157 484.926 333.051 482.33C332.945 479.734 332.094 479.303 331.197 479.159C330.299 479.016 328.41 480.954 330.701 484.316C332.992 487.677 335.874 488.598 336.074 487.905C336.275 487.211 334.964 485.189 334.964 485.189Z" fill="url(#paint26_linear)"/>
<path d="M379.383 405.323L450.339 273.669" stroke="#997979" stroke-width="3.63" stroke-miterlimit="10" stroke-linecap="round"/>
<path d="M292.223 707.308C259.425 708.792 232.923 709.988 232.923 709.988C232.923 709.988 205.7 705.107 205.759 681.887V547.11H205.866C206.055 552.84 209.928 577.484 262.484 578.585L261.303 686.158C261.303 686.158 265.543 702.81 292.223 707.308Z" fill="#EC9D9D" fill-opacity="0.08"/>
<path d="M292.223 707.308C259.425 708.792 232.923 709.988 232.923 709.988C232.923 709.988 205.7 705.107 205.759 681.887V547.11H205.866C206.055 552.84 209.928 577.484 262.484 578.585L261.303 686.158C261.303 686.158 265.543 702.81 292.223 707.308Z" fill="url(#paint27_linear)"/>
<path d="M205.759 549.443C205.759 549.443 189.792 429.106 282.349 400.741C411.377 361.203 440.029 479.159 437.171 528.89" stroke="#805555" stroke-width="3.63" stroke-miterlimit="10" stroke-linecap="round"/>
<path opacity="0.18" d="M159.38 104.653C155.138 107.965 151.301 111.776 147.948 116.007C145.714 118.372 143.889 121.102 142.55 124.082C141.685 126.652 141.188 129.335 141.074 132.049C140.788 133.961 140.896 135.912 141.393 137.779C141.649 138.719 142.173 139.561 142.9 140.2C143.627 140.839 144.525 141.245 145.479 141.368C147.275 141.44 148.81 140.172 150.204 138.976L177.249 115.241C178.238 114.523 178.995 113.524 179.422 112.37C179.607 111.148 179.426 109.898 178.903 108.781C177.781 105.658 176.293 99.7606 172.419 99.5333C167.954 99.2222 162.841 102.117 159.38 104.653ZM96.9272 40.0526C93.8982 43.1917 91.2497 46.6857 89.0379 50.4605C87.5128 52.6103 86.3551 55.0043 85.6129 57.5427C85.2075 59.7026 85.1081 61.9101 85.3177 64.0985C85.3071 65.6639 85.6125 67.215 86.2153 68.6564C86.5294 69.3754 87.0448 69.9853 87.6976 70.4106C88.3505 70.8358 89.1121 71.0578 89.8883 71.0491C91.3003 70.7121 92.5405 69.8604 93.3723 68.6564L112.387 46.5366C113.103 45.852 113.597 44.9635 113.804 43.9885C113.819 42.9932 113.535 42.0168 112.989 41.1891C111.808 38.7965 109.895 34.2624 106.765 34.5256C103.187 34.7768 99.4074 37.66 96.9272 40.0526ZM181.796 2.54816C178.575 4.01521 175.538 5.86665 172.749 8.06316C170.948 9.23591 169.352 10.7034 168.025 12.4058C167.09 13.9343 166.374 15.5899 165.899 17.3226C165.428 18.5072 165.207 19.7787 165.25 21.0551C165.277 21.6929 165.49 22.3083 165.862 22.8236C166.234 23.3389 166.748 23.7309 167.34 23.9502C168.522 24.1152 169.721 23.8295 170.706 23.1487L191.646 12.1067C192.391 11.8012 193.029 11.2761 193.477 10.5993C193.784 9.84167 193.858 9.00775 193.689 8.20672C193.441 6.02943 193.37 2.00982 190.925 1.2681C188.115 0.406757 184.394 1.47148 181.796 2.54816ZM244.934 39.5142C240.951 42.7016 237.359 46.3604 234.234 50.4127C232.148 52.6806 230.454 55.2894 229.226 58.1289C228.429 60.5753 227.987 63.1263 227.915 65.7015C227.668 67.5182 227.793 69.367 228.282 71.1328C228.546 72.0093 229.059 72.788 229.755 73.3727C230.452 73.9574 231.303 74.3224 232.203 74.4227C233.903 74.4227 235.344 73.2263 236.608 72.1138L261.953 49.2762C262.895 48.5965 263.608 47.6402 263.996 46.5366C264.15 45.3824 263.961 44.2077 263.453 43.163C262.366 40.2201 260.878 34.6452 257.205 34.4778C252.989 34.2864 248.17 37.0977 244.934 39.5142ZM213.542 182.414C211.208 185.995 209.305 189.847 207.873 193.886C206.805 196.242 206.131 198.76 205.877 201.34C205.883 203.491 206.193 205.63 206.799 207.692C207.074 209.199 207.653 210.632 208.499 211.903C208.935 212.527 209.542 213.009 210.246 213.287C210.949 213.566 211.717 213.629 212.456 213.47C213.759 212.874 214.792 211.802 215.349 210.467L229.522 185.656C230.086 184.863 230.403 183.917 230.431 182.94C230.249 181.983 229.793 181.101 229.12 180.404C227.502 178.358 224.88 174.339 221.928 175.176C218.585 176.145 215.491 179.65 213.542 182.414ZM298.576 105.192C295.713 108.344 293.223 111.825 291.16 115.564C289.722 117.707 288.652 120.082 287.994 122.586C287.65 124.71 287.606 126.874 287.865 129.01C287.897 130.539 288.235 132.044 288.857 133.437C289.187 134.125 289.708 134.701 290.356 135.094C291.004 135.487 291.751 135.68 292.506 135.65C293.886 135.269 295.08 134.388 295.86 133.174L313.894 111.054C314.575 110.365 315.035 109.486 315.217 108.53C315.209 107.557 314.908 106.609 314.355 105.814C313.08 103.529 311.154 99.1146 308.107 99.4495C304.576 99.8682 300.95 102.775 298.576 105.192ZM422.36 33.9275C418.13 34.1761 413.944 34.931 409.889 36.1765C407.388 36.7174 404.993 37.6755 402.803 39.0118C401.106 40.305 399.599 41.8356 398.326 43.5578C397.28 44.6727 396.475 45.9971 395.964 47.4458C395.729 48.1719 395.708 48.9521 395.906 49.6898C396.103 50.4275 396.509 51.0906 397.074 51.597C398.326 52.3001 399.793 52.5008 401.185 52.1593L429.34 48.8814C430.305 48.8661 431.243 48.5576 432.033 47.9961C432.67 47.2765 433.081 46.3811 433.214 45.424C433.864 42.8759 435.482 38.3538 433.061 36.4517C430.344 34.2744 425.726 33.8557 422.36 33.9275ZM384.319 151.621C380.716 153.901 377.393 156.607 374.422 159.684C372.474 161.363 370.818 163.36 369.521 165.594C368.634 167.549 368.029 169.624 367.726 171.755C367.348 173.235 367.279 174.78 367.525 176.289C367.656 177.042 368.004 177.739 368.525 178.293C369.046 178.846 369.717 179.231 370.454 179.399C371.886 179.412 373.272 178.883 374.34 177.916L397.511 161.431C398.354 160.958 399.034 160.236 399.46 159.361C399.7 158.416 399.655 157.42 399.33 156.502C398.704 153.954 397.996 149.192 394.972 148.69C391.547 148.068 387.237 149.922 384.319 151.621ZM493.411 149.683C489.198 149.238 484.948 149.302 480.751 149.874C478.193 149.997 475.673 150.555 473.298 151.525C471.418 152.518 469.688 153.779 468.161 155.27C466.965 156.209 465.975 157.39 465.255 158.739C464.908 159.419 464.766 160.187 464.846 160.948C464.925 161.71 465.224 162.431 465.704 163.022C466.832 163.911 468.248 164.338 469.673 164.218L498.017 165.558C498.488 165.676 498.978 165.698 499.457 165.621C499.937 165.544 500.396 165.37 500.808 165.11C501.22 164.851 501.576 164.509 501.855 164.108C502.135 163.706 502.332 163.251 502.434 162.77C503.474 160.378 505.788 156.167 503.698 153.894C501.242 151.31 496.742 150.113 493.411 149.683ZM155.128 262.567C155.638 266.829 156.649 271.014 158.14 275.032C158.641 277.36 159.609 279.559 160.985 281.491C162.36 283.424 164.114 285.049 166.136 286.266C167.304 287.235 168.66 287.944 170.116 288.347C170.847 288.539 171.619 288.51 172.334 288.264C173.05 288.017 173.679 287.564 174.143 286.96C174.752 285.649 174.853 284.155 174.426 282.773C172.757 273.354 171.088 263.943 169.419 254.54C169.337 253.568 168.971 252.644 168.368 251.884C167.628 251.26 166.717 250.88 165.758 250.795C163.207 250.305 158.672 248.953 156.935 251.525C154.963 254.516 154.845 259.217 155.128 262.567ZM507.288 33.6523C503.065 34.008 498.898 34.8714 494.876 36.2244C492.388 36.826 490.017 37.845 487.86 39.2391C486.197 40.5775 484.73 42.1484 483.502 43.9047C482.502 45.0519 481.746 46.3959 481.282 47.8525C481.052 48.5892 481.043 49.3786 481.258 50.1201C481.472 50.8617 481.9 51.5216 482.487 52.0157C483.761 52.6814 485.233 52.8476 486.62 52.4823L514.67 48.4268C515.63 48.3826 516.555 48.0494 517.327 47.4697C517.971 46.7407 518.383 45.8317 518.508 44.8618C519.087 42.3016 520.599 37.6839 518.13 35.9014C515.272 33.7839 510.642 33.4848 507.288 33.6523ZM316.28 7.02237C313.366 9.35242 310.737 12.0272 308.45 14.9898C306.921 16.6495 305.679 18.5585 304.777 20.6364C304.203 22.4282 303.881 24.2927 303.82 26.1753C303.639 27.5048 303.735 28.858 304.104 30.1471C304.294 30.7872 304.667 31.3559 305.175 31.7817C305.684 32.2075 306.305 32.4712 306.962 32.5397C308.208 32.4079 309.359 31.8056 310.186 30.8529L328.728 14.1045C329.411 13.6004 329.93 12.9003 330.216 12.0947C330.329 11.2511 330.189 10.3927 329.815 9.63033C329.012 7.47697 327.925 3.39754 325.244 3.27791C322.173 3.19417 318.642 5.25183 316.28 7.02237Z" fill="white"/>
</g>
<defs>
<linearGradient id="paint0_linear" x1="34018.4" y1="16301.9" x2="25246.5" y2="6005.12" gradientUnits="userSpaceOnUse">
<stop/>
<stop offset="1" stop-opacity="0"/>
</linearGradient>
<linearGradient id="paint1_linear" x1="144.169" y1="100.227" x2="214.558" y2="100.227" gradientUnits="userSpaceOnUse">
<stop stop-color="#183866"/>
<stop offset="1" stop-color="#1A7FC1"/>
</linearGradient>
<linearGradient id="paint2_linear" x1="322.363" y1="533.675" x2="328.541" y2="591.919" gradientUnits="userSpaceOnUse">
<stop stop-color="#68E1FD"/>
<stop offset="0.2" stop-color="#5DB4CF"/>
<stop offset="0.46" stop-color="#50819B"/>
<stop offset="0.69" stop-color="#475C76"/>
<stop offset="0.87" stop-color="#41455E"/>
<stop offset="0.99" stop-color="#3F3D56"/>
</linearGradient>
<linearGradient id="paint3_linear" x1="101554" y1="20716.7" x2="101527" y2="19045.9" gradientUnits="userSpaceOnUse">
<stop stop-color="#68E1FD"/>
<stop offset="0.2" stop-color="#5DB4CF"/>
<stop offset="0.46" stop-color="#50819B"/>
<stop offset="0.69" stop-color="#475C76"/>
<stop offset="0.87" stop-color="#41455E"/>
<stop offset="0.99" stop-color="#3F3D56"/>
</linearGradient>
<linearGradient id="paint4_linear" x1="102951" y1="28401.2" x2="102383" y2="39397.2" gradientUnits="userSpaceOnUse">
<stop/>
<stop offset="1" stop-opacity="0"/>
</linearGradient>
<linearGradient id="paint5_linear" x1="95164" y1="26961.7" x2="95727.8" y2="32376.8" gradientUnits="userSpaceOnUse">
<stop/>
<stop offset="1" stop-opacity="0"/>
</linearGradient>
<linearGradient id="paint6_linear" x1="62081.7" y1="39347.7" x2="62404.9" y2="34566.5" gradientUnits="userSpaceOnUse">
<stop/>
<stop offset="1" stop-opacity="0"/>
</linearGradient>
<linearGradient id="paint7_linear" x1="37746.9" y1="16813.6" x2="44251.1" y2="16813.6" gradientUnits="userSpaceOnUse">
<stop stop-color="#183866"/>
<stop offset="1" stop-color="#1A7FC1"/>
</linearGradient>
<linearGradient id="paint8_linear" x1="337.019" y1="513.422" x2="367.1" y2="513.422" gradientUnits="userSpaceOnUse">
<stop stop-color="#ECC4D7"/>
<stop offset="0.161458" stop-color="#EFD4D1"/>
<stop offset="0.536458" stop-color="#F2EAC9"/>
</linearGradient>
<linearGradient id="paint9_linear" x1="11602.4" y1="9395.2" x2="12146.3" y2="9395.2" gradientUnits="userSpaceOnUse">
<stop stop-color="#183866"/>
<stop offset="1" stop-color="#1A7FC1"/>
</linearGradient>
<linearGradient id="paint10_linear" x1="27092.4" y1="34107.3" x2="33644" y2="33695.6" gradientUnits="userSpaceOnUse">
<stop stop-opacity="0.35"/>
<stop offset="1" stop-opacity="0"/>
</linearGradient>
<linearGradient id="paint11_linear" x1="46562.8" y1="41889.7" x2="47106.9" y2="36028" gradientUnits="userSpaceOnUse">
<stop/>
<stop offset="1" stop-opacity="0"/>
</linearGradient>
<linearGradient id="paint12_linear" x1="13671.2" y1="7278.53" x2="13725.5" y2="7024.14" gradientUnits="userSpaceOnUse">
<stop stop-color="#ECC4D7"/>
<stop offset="0.42" stop-color="#EFD4D1"/>
<stop offset="1" stop-color="#F2EAC9"/>
</linearGradient>
<linearGradient id="paint13_linear" x1="10117.8" y1="7798.33" x2="10219" y2="7509.48" gradientUnits="userSpaceOnUse">
<stop stop-color="#ECC4D7"/>
<stop offset="0.42" stop-color="#EFD4D1"/>
<stop offset="1" stop-color="#F2EAC9"/>
</linearGradient>
<linearGradient id="paint14_linear" x1="320.227" y1="233.493" x2="159.554" y2="285.423" gradientUnits="userSpaceOnUse">
<stop/>
<stop offset="0.62" stop-opacity="0.26"/>
<stop offset="1" stop-opacity="0"/>
</linearGradient>
<linearGradient id="paint15_linear" x1="31782.3" y1="22296.1" x2="42204.5" y2="22296.1" gradientUnits="userSpaceOnUse">
<stop stop-color="#183866"/>
<stop offset="1" stop-color="#1A7FC1"/>
</linearGradient>
<linearGradient id="paint16_linear" x1="47664.9" y1="17233.3" x2="37318.8" y2="12557.6" gradientUnits="userSpaceOnUse">
<stop/>
<stop offset="1" stop-opacity="0"/>
</linearGradient>
<linearGradient id="paint17_linear" x1="28483.8" y1="11066.9" x2="34329.7" y2="11066.9" gradientUnits="userSpaceOnUse">
<stop stop-color="#183866"/>
<stop offset="1" stop-color="#1A7FC1"/>
</linearGradient>
<linearGradient id="paint18_linear" x1="41498.5" y1="32548.1" x2="28920" y2="20584.5" gradientUnits="userSpaceOnUse">
<stop/>
<stop offset="1" stop-opacity="0"/>
</linearGradient>
<linearGradient id="paint19_linear" x1="48042.4" y1="24839.7" x2="37183.6" y2="26693.8" gradientUnits="userSpaceOnUse">
<stop/>
<stop offset="1" stop-opacity="0"/>
</linearGradient>
<linearGradient id="paint20_linear" x1="53649.8" y1="8258.9" x2="59847.4" y2="1115.77" gradientUnits="userSpaceOnUse">
<stop stop-opacity="0.02"/>
<stop offset="1" stop-opacity="0"/>
</linearGradient>
<linearGradient id="paint21_linear" x1="59955" y1="10583.2" x2="50409.7" y2="1050.3" gradientUnits="userSpaceOnUse">
<stop/>
<stop offset="1" stop-opacity="0"/>
</linearGradient>
<linearGradient id="paint22_linear" x1="40697.8" y1="18567.8" x2="48587.9" y2="18567.8" gradientUnits="userSpaceOnUse">
<stop stop-color="#183866"/>
<stop offset="1" stop-color="#1A7FC1"/>
</linearGradient>
<linearGradient id="paint23_linear" x1="48342.6" y1="10650.9" x2="57431.8" y2="10650.9" gradientUnits="userSpaceOnUse">
<stop stop-color="#183866"/>
<stop offset="1" stop-color="#1A7FC1"/>
</linearGradient>
<linearGradient id="paint24_linear" x1="54055.6" y1="26990.7" x2="44216.4" y2="19858.8" gradientUnits="userSpaceOnUse">
<stop/>
<stop offset="1" stop-opacity="0"/>
</linearGradient>
<linearGradient id="paint25_linear" x1="24129.2" y1="15424" x2="26674.1" y2="15424" gradientUnits="userSpaceOnUse">
<stop stop-color="#183866"/>
<stop offset="1" stop-color="#1A7FC1"/>
</linearGradient>
<linearGradient id="paint26_linear" x1="3147.97" y1="4127.55" x2="3183.57" y2="4127.55" gradientUnits="userSpaceOnUse">
<stop stop-color="#183866"/>
<stop offset="1" stop-color="#1A7FC1"/>
</linearGradient>
<linearGradient id="paint27_linear" x1="43781.6" y1="82950.4" x2="24158.2" y2="84530.5" gradientUnits="userSpaceOnUse">
<stop/>
<stop offset="1" stop-opacity="0"/>
</linearGradient>
<clipPath id="clip0">
<rect width="655" height="710" fill="white"/>
</clipPath>
</defs>
</svg>
